<?xml version="1.0" encoding="utf-8"?>
<!-- Generator: Adobe Illustrator 23.0.0, SVG Export Plug-In . SVG Version: 6.00 Build 0)  -->
<svg version="1.1" id="图层_1" xmlns="http://www.w3.org/2000/svg" xmlns:xlink="http://www.w3.org/1999/xlink" x="0px" y="0px"
	 viewBox="0 0 1200 1200" style="enable-background:new 0 0 1200 1200;" xml:space="preserve">
<style type="text/css">
	.st0{fill:#1A006A;}
	.st1{fill:#F42900;}
</style>
<path class="st0" d="M511.53,63.12c279.99,0,506.98,226.98,506.98,506.98s-226.98,506.98-506.98,506.98
	C231.53,1077.02,4.6,849.99,4.65,570C4.71,290.08,231.61,63.18,511.53,63.12L511.53,63.12z M628.13,984.55
	c115.17-32.64,211.66-111.58,266.48-218H698.54c-14.89,88.21-39.54,163.5-70.47,218H628.13z M128.38,766.55
	c54.83,106.44,151.34,185.37,266.54,218c-30.93-54.5-55.58-129.79-70.47-218H128.44H128.38z M394.92,155.65
	c-115.17,32.64-211.66,111.58-266.48,218h196.14c14.89-88.28,39.54-163.5,70.47-218L394.92,155.65z M894.55,373.65
	C839.71,267.21,743.2,188.28,628,155.65c30.93,54.5,55.58,129.72,70.41,218H894.55z M511.53,139.17
	c-23.89,0-80.67,80.48-109.38,234.48h218.7C592.2,219.65,535.42,139.17,511.53,139.17z M98.09,690.63l0.7-0.13h215.91
	c-3.92-40.02-5.91-80.2-5.96-120.41c0-41.57,2.22-81.75,5.96-120.41H98.02C86.53,488.8,80.66,529.34,80.6,570.1
	C80.6,611.93,86.93,652.29,98.09,690.63z M391.56,690.51h239.93c3.93-37.26,6.78-76.68,6.78-120.41s-2.85-83.14-6.78-120.41H391.56
	c-4.43,39.98-6.7,80.18-6.78,120.41C384.78,613.83,387.57,653.24,391.56,690.51L391.56,690.51z M511.53,1001.03
	c23.89,0,80.67-80.48,109.38-234.48H402.15C430.85,920.55,487.7,1001.03,511.53,1001.03z M922.62,690.51c0.82,0,1.46,0.38,2.28,0.44
	c11.57-39.24,17.48-79.94,17.55-120.85c0-42.08-6.34-82.64-17.62-121.04c-1.2,0.06-2.28,0.63-3.49,0.63H708.3
	c3.8,38.66,6.02,78.83,6.02,120.41s-2.22,81.75-6.02,120.41L922.62,690.51L922.62,690.51z"/>
<path class="st1" d="M902.65,722.95l113.84-221.55L676.55,326.72L503.29,663.89c-2.83,5.57-6.56,10.63-11.03,15
	c-35.61,43.17-96.38,55.91-146.33,30.68l-42.67-21.93c-58.54-30.08-81.15-102.82-50.5-162.47c30.61-59.58,102.95-83.62,161.49-53.54
	l42.67,21.93c2.56,1.32,5.06,2.77,7.55,4.23l177.45-345.35C679.3,79.71,767.51,50.51,838.87,87.18l277.87,142.78
	c71.36,36.67,98.98,125.38,61.6,198.12L941.47,889.05c-2.86,5.56-6.61,10.61-11.1,14.96c-35.59,43.15-96.32,55.9-146.26,30.72
	l-42.74-21.96c-58.47-30.04-81.15-102.82-50.5-162.47c30.61-59.58,103.02-83.58,161.49-53.54l42.67,21.93
	C897.66,720.04,900.15,721.49,902.65,722.95L902.65,722.95z"/>
</svg>
